
        <svg xmlns="http://www.w3.org/2000/svg" xmlns:xlink="http://www.w3.org/1999/xlink" version="1.1" width="3133.6302895322942" height="828.5077951002228" viewBox="0 0 3133.6302895322942 828.5077951002228">
			
			<g transform="scale(6.6815144766147) translate(10, 10)">
				<defs id="SvgjsDefs1727"/><g id="SvgjsG1728" featureKey="rootContainer" transform="matrix(1,0,0,1,0,0)" fill="#fff"><rect xmlns="http://www.w3.org/2000/svg" width="449" height="104" rx="10" ry="10"/></g><g id="SvgjsG1729" featureKey="nameLeftFeature-0" transform="matrix(2.4280204817214,0,0,2.4280204817214,18.838436757650605,23.097843719009816)" fill="#000000"><path d="M7.6758 4.901999999999999 l6.748 14.482 l-1.543 0 l-2.2754 -4.7754 l-6.25 0 l-2.2559 4.7754 l-1.6211 0 l6.8457 -14.482 l0.35156 0 z M7.5 7.968999999999999 l-2.5 5.2539 l4.9609 0 z M16.669909375 19.42383 l0 -14.482 l0.3125 0 l9.6289 11.084 l0 -11.084 l1.4258 0 l0 14.482 l-0.33203 0 l-9.5313 -10.947 l0 10.947 l-1.5039 0 z M31.542921875 19.38477 l0 -14.482 l2.998 0 q3.251953125 0 4.7265625 0.52734375 q2.099609375 0.732421875 3.286132813 2.553710938 t1.1865 4.3408 q0 2.16796875 -0.9423828125 3.828125 t-2.4414 2.4463 t-4.2041 0.78613 l-4.6094 0 z M32.929721875 18.0078 l1.6699 0 q2.998046875 0 4.169921875 -0.37109375 q1.630859375 -0.52734375 2.568359375 -1.909179688 t0.9375 -3.3838 q0 -2.099609375 -1.010742188 -3.583984375 t-2.8271 -2.0313 q-1.3671875 -0.419921875 -4.482421875 -0.419921875 l-1.0254 0 l0 11.699 z M46.601590625 4.941000000000001 l2.8809 0 q2.412109375 0 3.271484375 0.1953125 q1.2890625 0.29296875 2.099609375 1.264648438 t0.81055 2.3877 q0 1.19140625 -0.556640625 2.080078125 t-1.5967 1.3525 t-1.8018 0.46387 l4.1504 6.7383 l-1.7773 0 l-4.1504 -6.7383 l-1.8848 0 l0 6.7383 l-1.4453 0 l0 -14.482 z M48.046890625 6.356999999999999 l0 4.9219 l2.4902 0.019531 q1.4453125 0 2.143554688 -0.2734375 t1.084 -0.87891 t0.38574 -1.3574 q0 -0.72265625 -0.3955078125 -1.318359375 t-1.0303 -0.85449 t-2.1289 -0.25879 l-2.5488 0 z M58.7499875 4.941000000000001 l8.3008 0 l0 1.4258 l-6.8555 0 l0 4.5313 l4.1797 0 l0 1.4063 l-4.1797 0 l0 5.6836 l6.7969 0 l0 1.4355 l-8.2422 0 l0 -14.482 z M69.091796875 4.98 l1.4844 0 l2.9492 10.439 l4.1406 -10.439 l0.3125 0 l4.1016 10.439 l2.998 -10.439 l1.4746 0 l-4.1504 14.482 l-0.2832 0 l-4.2871 -10.957 l-4.3848 10.957 l-0.26367 0 z"/></g><g id="SvgjsG1730" featureKey="inlineSymbolFeature-0" transform="matrix(0.7219600830425154,0,0,0.7219600830425154,240.04491089187334,15.725997630336703)" fill="#000000"><title xmlns="http://www.w3.org/2000/svg">99all</title><path xmlns="http://www.w3.org/2000/svg" d="M86.24,54.28c1.17-9.82,2.5-20.95-.39-27.42-4.31-12.15-17.32-20.94-31-20.94-17.51,0-32.35,14-32.8,30.65L12.68,60.47A4,4,0,0,0,16,65.91l6.75.64,2.63,12.8a4,4,0,0,0,4.18,3.18L39,81.91l-.3,8a4,4,0,0,0,4,4.15h0l40.41-.46a4,4,0,0,0,3.94-4.38L85.49,72.3a59.14,59.14,0,0,1-.13-9.57C85.52,60.33,85.87,57.39,86.24,54.28ZM77.52,73.06l1.2,12.61L46.86,86,47,81l10.19-1.88-1.45-7.87L42.67,73.64l-10.13.68L30,62a4,4,0,0,0-3.54-3.18l-4.41-.42L29.74,38.8A4,4,0,0,0,30,37.35c0-12.48,11.59-23.43,24.81-23.43,10.3,0,20.41,6.77,23.53,15.75,0,.13.1.26.16.38,2,4.37.74,15.3-.21,23.28-.38,3.21-.75,6.24-.92,8.85A67,67,0,0,0,77.52,73.06Z"/><rect xmlns="http://www.w3.org/2000/svg" x="38.8" y="37.5" width="30.41" height="7" transform="matrix(0.18, -0.98, 0.98, 0.18, 4.13, 86.94)"/><polygon xmlns="http://www.w3.org/2000/svg" points="60.07 33.41 66.07 41 60.07 48.59 65.56 52.93 74.99 41 65.56 29.07 60.07 33.41"/><polygon xmlns="http://www.w3.org/2000/svg" points="41.93 41 47.93 33.41 42.44 29.07 33.01 41 42.44 52.93 47.93 48.59 41.93 41"/></g><g id="SvgjsG1731" featureKey="nameRightFeature-0" transform="matrix(2.3784821805187417,0,0,2.3784821805187417,310.3178484785678,23.850897669130227)" fill="#000000"><path d="M5.332035625 6.348000000000001 l0 -1.4063 l7.9492 0 l0 1.4063 l-3.2422 0 l0 13.076 l-1.4746 0 l0 -13.076 l-3.2324 0 z M15.13675 4.941000000000001 l1.4453 0 l0 14.482 l-1.4453 0 l0 -14.482 z M18.457035625 6.348000000000001 l0 -1.4063 l7.9492 0 l0 1.4063 l-3.2422 0 l0 13.076 l-1.4746 0 l0 -13.076 l-3.2324 0 z M28.51565 4.707000000000001 l1.4453 0 l0 8.7402 q0 1.552734375 0.068359375 1.943359375 q0.107421875 0.859375 0.498046875 1.430664063 t1.2061 0.95703 t1.6455 0.38574 q0.712890625 0.185546875 1.962890625 -0.126953125 t1.6895 -0.93262 t0.64453 -1.4014 q0.15625 -0.546875 0.15625 -2.255859375 l0 -8.7402 l1.4453 0 l0 8.7402 q0 1.943359375 -0.380859375 3.139648438 t-1.5186 2.0801 t-3.9209 0.88379 q-1.7578125 0 -3.002929688 -0.83984375 t-1.665 -2.207 q-0.2734375 -0.859375 -0.2734375 -3.056640625 l0 -8.7402 z M41.425780625 16.4941 l1.2305 -0.74219 q1.298828125 2.392578125 2.998046875 2.392578125 q0.732421875 0 1.376953125 -0.341796875 t0.97656 -0.9082 t0.33203 -1.2109 q0 -0.72265625 -0.48828125 -1.42578125 q-0.68359375 -0.966796875 -2.490234375 -1.97265625 q-1.81640625 -1.3671875 -2.24609375 -1.982421875 q-0.771484375 -1.015625 -0.771484375 -2.216796875 q0 -0.947265625 0.44921875 -1.71875 t1.2744 -1.2256 t1.792 -0.4541 q1.015625 0 1.904296875 0.5126953125 t1.8848 1.8701 l-1.1816 0.88867 q-0.810546875 -1.07421875 -1.38671875 -1.420898438 t-1.2598 -0.34668 q-0.869140625 0 -1.42578125 0.5322265625 t-0.55664 1.3037 q0 0.46875 0.1953125 0.91796875 t0.72266 0.95703 q0.283203125 0.283203125 1.875 1.455078125 q1.875 1.38671875 2.573242188 2.294921875 t0.69824 1.9922 q0 1.58203125 -1.196289063 2.744140625 t-2.9053 1.1621 q-1.328125 0 -2.40234375 -0.703125 t-1.9727 -2.3535 z"/></g>
			</g>
		</svg>
	