<svg xmlns="http://www.w3.org/2000/svg" xmlns:xlink="http://www.w3.org/1999/xlink" width="500" zoomAndPan="magnify" viewBox="0 0 375 374.999991" height="500" preserveAspectRatio="xMidYMid meet" version="1.0"><defs><clipPath id="3c74dea2e0"><path d="M 103.605469 78 L 270 78 L 270 174.738281 L 103.605469 174.738281 Z M 103.605469 78 " clip-rule="nonzero"/></clipPath><clipPath id="a22dd7140d"><path d="M 103.605469 84 L 270 84 L 270 174.738281 L 103.605469 174.738281 Z M 103.605469 84 " clip-rule="nonzero"/></clipPath></defs><rect x="-37.5" width="450" fill="#ffffff" y="-37.499999" height="449.999989" fill-opacity="1"/><rect x="-37.5" width="450" fill="#ffffff" y="-37.499999" height="449.999989" fill-opacity="1"/><rect x="-37.5" width="450" fill="#fffaef" y="-37.499999" height="449.999989" fill-opacity="1"/><g clip-path="url(#3c74dea2e0)"><path fill="#ffdf3c" d="M 265.957031 85.171875 C 264.054688 94.523438 266.8125 104.972656 268.691406 110.527344 C 269.835938 113.90625 270.238281 117.503906 269.816406 121.046875 C 265.863281 154.210938 231.730469 174.742188 187.996094 174.742188 C 141.457031 174.742188 103.730469 150.265625 103.730469 113.28125 C 103.730469 113.28125 105.738281 105.230469 113.191406 106.890625 C 120.640625 108.554688 149.820312 132.792969 187.441406 132.792969 C 214.480469 132.792969 257.472656 105.289062 250.765625 81.90625 C 250.765625 81.90625 247.402344 76.492188 259.449219 78.726562 C 271.5 80.960938 265.957031 85.171875 265.957031 85.171875 Z M 265.957031 85.171875 " fill-opacity="1" fill-rule="nonzero"/></g><path fill="#ffdf3c" d="M 186.90625 151.328125 C 240.117188 154.59375 260.871094 116.582031 258.6875 85.148438 C 258.6875 85.148438 263.46875 86.160156 266.1875 84.972656 C 267.101562 84.113281 269.933594 80.671875 259.449219 78.726562 C 247.402344 76.492188 250.765625 81.90625 250.765625 81.90625 C 257.472656 105.289062 214.480469 132.792969 187.441406 132.792969 C 149.820312 132.792969 120.640625 108.554688 113.191406 106.890625 C 110.183594 106.21875 108.0625 107.132812 106.601562 108.457031 C 112.097656 117.324219 134.820312 148.125 186.90625 151.328125 Z M 186.90625 151.328125 " fill-opacity="1" fill-rule="nonzero"/><g clip-path="url(#a22dd7140d)"><path fill="#feb913" d="M 103.730469 113.28125 C 103.730469 150.265625 141.457031 174.742188 187.996094 174.742188 C 231.730469 174.742188 265.863281 154.210938 269.816406 121.046875 C 270.238281 117.503906 269.835938 113.910156 268.695312 110.527344 C 266.8125 104.972656 264.054688 94.523438 265.957031 85.171875 C 265.957031 85.171875 266.050781 85.101562 266.1875 84.972656 C 263.46875 86.160156 258.6875 85.148438 258.6875 85.148438 C 260.871094 116.582031 240.117188 154.59375 186.90625 151.328125 C 134.820312 148.125 112.097656 117.324219 106.605469 108.460938 C 104.445312 110.417969 103.730469 113.28125 103.730469 113.28125 Z M 103.730469 113.28125 " fill-opacity="1" fill-rule="nonzero"/></g><path fill="#6f2407" d="M 165.578125 143.648438 C 165.578125 144.167969 165.527344 144.683594 165.425781 145.195312 C 165.324219 145.703125 165.171875 146.199219 164.972656 146.679688 C 164.773438 147.160156 164.53125 147.617188 164.242188 148.050781 C 163.953125 148.484375 163.621094 148.882812 163.253906 149.25 C 162.886719 149.617188 162.488281 149.945312 162.054688 150.234375 C 161.621094 150.523438 161.164062 150.769531 160.683594 150.96875 C 160.203125 151.167969 159.707031 151.316406 159.195312 151.417969 C 158.6875 151.519531 158.171875 151.570312 157.648438 151.570312 C 157.128906 151.570312 156.613281 151.519531 156.105469 151.417969 C 155.59375 151.316406 155.097656 151.167969 154.617188 150.96875 C 154.136719 150.769531 153.679688 150.523438 153.246094 150.234375 C 152.8125 149.945312 152.414062 149.617188 152.046875 149.25 C 151.675781 148.882812 151.347656 148.484375 151.058594 148.050781 C 150.769531 147.617188 150.527344 147.160156 150.328125 146.679688 C 150.128906 146.199219 149.976562 145.703125 149.875 145.195312 C 149.773438 144.683594 149.722656 144.167969 149.722656 143.648438 C 149.722656 143.128906 149.773438 142.613281 149.875 142.101562 C 149.976562 141.589844 150.128906 141.097656 150.328125 140.617188 C 150.527344 140.136719 150.769531 139.679688 151.058594 139.246094 C 151.347656 138.8125 151.675781 138.414062 152.046875 138.046875 C 152.414062 137.675781 152.8125 137.347656 153.246094 137.058594 C 153.679688 136.769531 154.136719 136.527344 154.617188 136.328125 C 155.097656 136.128906 155.59375 135.976562 156.105469 135.875 C 156.613281 135.773438 157.128906 135.722656 157.648438 135.722656 C 158.171875 135.722656 158.6875 135.773438 159.195312 135.875 C 159.707031 135.976562 160.203125 136.128906 160.683594 136.328125 C 161.164062 136.527344 161.621094 136.769531 162.054688 137.058594 C 162.488281 137.347656 162.886719 137.675781 163.253906 138.046875 C 163.621094 138.414062 163.953125 138.8125 164.242188 139.246094 C 164.53125 139.679688 164.773438 140.136719 164.972656 140.617188 C 165.171875 141.097656 165.324219 141.589844 165.425781 142.101562 C 165.527344 142.613281 165.578125 143.128906 165.578125 143.648438 Z M 165.578125 143.648438 " fill-opacity="1" fill-rule="nonzero"/><path fill="#ffffff" d="M 156.242188 141.089844 C 156.242188 141.378906 156.1875 141.65625 156.078125 141.921875 C 155.96875 142.1875 155.8125 142.425781 155.605469 142.628906 C 155.402344 142.832031 155.167969 142.988281 154.902344 143.097656 C 154.636719 143.207031 154.359375 143.265625 154.070312 143.265625 C 153.78125 143.265625 153.503906 143.207031 153.238281 143.097656 C 152.972656 142.988281 152.738281 142.832031 152.535156 142.628906 C 152.332031 142.425781 152.171875 142.1875 152.0625 141.921875 C 151.953125 141.65625 151.898438 141.378906 151.898438 141.089844 C 151.898438 140.804688 151.953125 140.527344 152.0625 140.261719 C 152.171875 139.992188 152.332031 139.757812 152.535156 139.554688 C 152.738281 139.351562 152.972656 139.195312 153.238281 139.085938 C 153.503906 138.972656 153.78125 138.917969 154.070312 138.917969 C 154.359375 138.917969 154.636719 138.972656 154.902344 139.085938 C 155.167969 139.195312 155.402344 139.351562 155.605469 139.554688 C 155.8125 139.757812 155.96875 139.992188 156.078125 140.261719 C 156.1875 140.527344 156.242188 140.804688 156.242188 141.089844 Z M 156.242188 141.089844 " fill-opacity="1" fill-rule="nonzero"/><path fill="#6f2407" d="M 224.636719 143.648438 C 224.636719 144.167969 224.585938 144.683594 224.484375 145.195312 C 224.382812 145.703125 224.234375 146.199219 224.035156 146.679688 C 223.835938 147.160156 223.589844 147.617188 223.300781 148.050781 C 223.011719 148.484375 222.683594 148.882812 222.316406 149.25 C 221.949219 149.617188 221.546875 149.945312 221.117188 150.234375 C 220.683594 150.523438 220.226562 150.769531 219.746094 150.96875 C 219.265625 151.167969 218.769531 151.316406 218.257812 151.417969 C 217.75 151.519531 217.234375 151.570312 216.710938 151.570312 C 216.191406 151.570312 215.675781 151.519531 215.167969 151.417969 C 214.65625 151.316406 214.160156 151.167969 213.679688 150.96875 C 213.199219 150.769531 212.742188 150.523438 212.308594 150.234375 C 211.875 149.945312 211.476562 149.617188 211.109375 149.25 C 210.738281 148.882812 210.410156 148.484375 210.121094 148.050781 C 209.832031 147.617188 209.589844 147.160156 209.390625 146.679688 C 209.191406 146.199219 209.039062 145.703125 208.9375 145.195312 C 208.835938 144.683594 208.785156 144.167969 208.785156 143.648438 C 208.785156 143.128906 208.835938 142.613281 208.9375 142.101562 C 209.039062 141.589844 209.191406 141.097656 209.390625 140.617188 C 209.589844 140.136719 209.832031 139.679688 210.121094 139.246094 C 210.410156 138.8125 210.738281 138.414062 211.109375 138.046875 C 211.476562 137.675781 211.875 137.347656 212.308594 137.058594 C 212.742188 136.769531 213.199219 136.527344 213.679688 136.328125 C 214.160156 136.128906 214.65625 135.976562 215.167969 135.875 C 215.675781 135.773438 216.191406 135.722656 216.710938 135.722656 C 217.234375 135.722656 217.75 135.773438 218.257812 135.875 C 218.769531 135.976562 219.265625 136.128906 219.746094 136.328125 C 220.226562 136.527344 220.683594 136.769531 221.117188 137.058594 C 221.546875 137.347656 221.949219 137.675781 222.316406 138.046875 C 222.683594 138.414062 223.011719 138.8125 223.300781 139.246094 C 223.589844 139.679688 223.835938 140.136719 224.035156 140.617188 C 224.234375 141.097656 224.382812 141.589844 224.484375 142.101562 C 224.585938 142.613281 224.636719 143.128906 224.636719 143.648438 Z M 224.636719 143.648438 " fill-opacity="1" fill-rule="nonzero"/><path fill="#ffffff" d="M 215.304688 141.089844 C 215.304688 141.378906 215.25 141.65625 215.140625 141.921875 C 215.03125 142.1875 214.875 142.425781 214.667969 142.628906 C 214.464844 142.832031 214.230469 142.988281 213.964844 143.097656 C 213.699219 143.207031 213.421875 143.265625 213.132812 143.265625 C 212.84375 143.265625 212.566406 143.207031 212.300781 143.097656 C 212.035156 142.988281 211.800781 142.832031 211.597656 142.628906 C 211.390625 142.425781 211.234375 142.1875 211.125 141.921875 C 211.015625 141.65625 210.960938 141.378906 210.960938 141.089844 C 210.960938 140.804688 211.015625 140.527344 211.125 140.261719 C 211.234375 139.992188 211.390625 139.757812 211.597656 139.554688 C 211.800781 139.351562 212.035156 139.195312 212.300781 139.085938 C 212.566406 138.972656 212.84375 138.917969 213.132812 138.917969 C 213.421875 138.917969 213.699219 138.972656 213.964844 139.085938 C 214.230469 139.195312 214.464844 139.351562 214.667969 139.554688 C 214.875 139.757812 215.03125 139.992188 215.140625 140.261719 C 215.25 140.527344 215.304688 140.804688 215.304688 141.089844 Z M 215.304688 141.089844 " fill-opacity="1" fill-rule="nonzero"/><path fill="#fa6f34" d="M 225.789062 160.519531 C 225.789062 160.875 225.730469 161.230469 225.613281 161.582031 C 225.5 161.929688 225.324219 162.269531 225.097656 162.601562 C 224.871094 162.933594 224.589844 163.246094 224.257812 163.542969 C 223.929688 163.839844 223.550781 164.113281 223.128906 164.367188 C 222.710938 164.621094 222.25 164.847656 221.753906 165.042969 C 221.257812 165.242188 220.738281 165.410156 220.1875 165.546875 C 219.636719 165.683594 219.066406 165.789062 218.484375 165.859375 C 217.898438 165.925781 217.308594 165.960938 216.710938 165.960938 C 216.117188 165.960938 215.527344 165.925781 214.941406 165.859375 C 214.355469 165.789062 213.789062 165.683594 213.238281 165.546875 C 212.6875 165.410156 212.164062 165.242188 211.667969 165.042969 C 211.175781 164.847656 210.714844 164.621094 210.292969 164.367188 C 209.871094 164.113281 209.496094 163.839844 209.164062 163.542969 C 208.835938 163.246094 208.554688 162.933594 208.328125 162.601562 C 208.097656 162.269531 207.925781 161.929688 207.808594 161.582031 C 207.695312 161.230469 207.636719 160.875 207.636719 160.519531 C 207.636719 160.160156 207.695312 159.804688 207.808594 159.457031 C 207.925781 159.105469 208.097656 158.765625 208.328125 158.433594 C 208.554688 158.105469 208.835938 157.789062 209.164062 157.492188 C 209.496094 157.195312 209.871094 156.921875 210.292969 156.667969 C 210.714844 156.414062 211.175781 156.191406 211.667969 155.992188 C 212.164062 155.792969 212.6875 155.625 213.238281 155.488281 C 213.789062 155.351562 214.355469 155.25 214.941406 155.179688 C 215.527344 155.109375 216.117188 155.074219 216.710938 155.074219 C 217.308594 155.074219 217.898438 155.109375 218.484375 155.179688 C 219.066406 155.25 219.636719 155.351562 220.1875 155.488281 C 220.738281 155.625 221.257812 155.792969 221.753906 155.992188 C 222.25 156.191406 222.710938 156.414062 223.128906 156.667969 C 223.550781 156.921875 223.929688 157.195312 224.257812 157.492188 C 224.589844 157.789062 224.871094 158.105469 225.097656 158.433594 C 225.324219 158.765625 225.5 159.105469 225.613281 159.457031 C 225.730469 159.804688 225.789062 160.160156 225.789062 160.519531 Z M 225.789062 160.519531 " fill-opacity="1" fill-rule="nonzero"/><path fill="#6f2407" d="M 216.710938 162.859375 C 217.273438 162.859375 217.730469 162.402344 217.730469 161.839844 L 217.730469 159.195312 C 217.730469 158.632812 217.273438 158.175781 216.710938 158.175781 C 216.148438 158.175781 215.695312 158.632812 215.695312 159.195312 L 215.695312 161.839844 C 215.695312 162.402344 216.148438 162.859375 216.710938 162.859375 Z M 216.710938 162.859375 " fill-opacity="1" fill-rule="nonzero"/><path fill="#6f2407" d="M 222.621094 162.859375 C 222.769531 162.859375 222.925781 162.824219 223.070312 162.753906 C 223.574219 162.503906 223.78125 161.894531 223.53125 161.390625 L 222.222656 158.742188 C 221.976562 158.238281 221.363281 158.03125 220.859375 158.28125 C 220.355469 158.53125 220.148438 159.140625 220.398438 159.644531 L 221.707031 162.292969 C 221.882812 162.652344 222.242188 162.859375 222.621094 162.859375 Z M 222.621094 162.859375 " fill-opacity="1" fill-rule="nonzero"/><path fill="#6f2407" d="M 210.804688 162.859375 C 211.179688 162.859375 211.542969 162.652344 211.71875 162.292969 L 213.027344 159.644531 C 213.277344 159.140625 213.070312 158.53125 212.566406 158.28125 C 212.0625 158.03125 211.449219 158.238281 211.199219 158.742188 L 209.894531 161.390625 C 209.644531 161.894531 209.851562 162.503906 210.355469 162.753906 C 210.5 162.824219 210.652344 162.859375 210.804688 162.859375 Z M 210.804688 162.859375 " fill-opacity="1" fill-rule="nonzero"/><path fill="#fa6f34" d="M 166.726562 160.519531 C 166.726562 160.875 166.667969 161.230469 166.554688 161.582031 C 166.4375 161.929688 166.265625 162.269531 166.035156 162.601562 C 165.808594 162.933594 165.527344 163.246094 165.199219 163.542969 C 164.867188 163.839844 164.488281 164.113281 164.070312 164.367188 C 163.648438 164.621094 163.1875 164.847656 162.691406 165.042969 C 162.199219 165.242188 161.675781 165.410156 161.125 165.546875 C 160.574219 165.683594 160.003906 165.789062 159.421875 165.859375 C 158.835938 165.925781 158.246094 165.960938 157.648438 165.960938 C 157.054688 165.960938 156.464844 165.925781 155.878906 165.859375 C 155.292969 165.789062 154.726562 165.683594 154.175781 165.546875 C 153.625 165.410156 153.101562 165.242188 152.605469 165.042969 C 152.113281 164.847656 151.652344 164.621094 151.230469 164.367188 C 150.808594 164.113281 150.433594 163.839844 150.101562 163.542969 C 149.773438 163.246094 149.492188 162.933594 149.265625 162.601562 C 149.035156 162.269531 148.863281 161.929688 148.746094 161.582031 C 148.632812 161.230469 148.574219 160.875 148.574219 160.519531 C 148.574219 160.160156 148.632812 159.804688 148.746094 159.457031 C 148.863281 159.105469 149.035156 158.765625 149.265625 158.433594 C 149.492188 158.105469 149.773438 157.789062 150.101562 157.492188 C 150.433594 157.195312 150.808594 156.921875 151.230469 156.667969 C 151.652344 156.414062 152.113281 156.191406 152.605469 155.992188 C 153.101562 155.792969 153.625 155.625 154.175781 155.488281 C 154.726562 155.351562 155.292969 155.25 155.878906 155.179688 C 156.464844 155.109375 157.054688 155.074219 157.648438 155.074219 C 158.246094 155.074219 158.835938 155.109375 159.421875 155.179688 C 160.003906 155.25 160.574219 155.351562 161.125 155.488281 C 161.675781 155.625 162.199219 155.792969 162.691406 155.992188 C 163.1875 156.191406 163.648438 156.414062 164.070312 156.667969 C 164.488281 156.921875 164.867188 157.195312 165.199219 157.492188 C 165.527344 157.789062 165.808594 158.105469 166.035156 158.433594 C 166.265625 158.765625 166.4375 159.105469 166.554688 159.457031 C 166.667969 159.804688 166.726562 160.160156 166.726562 160.519531 Z M 166.726562 160.519531 " fill-opacity="1" fill-rule="nonzero"/><path fill="#6f2407" d="M 157.648438 162.859375 C 157.089844 162.859375 156.632812 162.402344 156.632812 161.839844 L 156.632812 159.195312 C 156.632812 158.632812 157.089844 158.175781 157.648438 158.175781 C 158.210938 158.175781 158.667969 158.632812 158.667969 159.195312 L 158.667969 161.839844 C 158.667969 162.402344 158.214844 162.859375 157.648438 162.859375 Z M 157.648438 162.859375 " fill-opacity="1" fill-rule="nonzero"/><path fill="#6f2407" d="M 151.742188 162.859375 C 151.59375 162.859375 151.4375 162.824219 151.292969 162.753906 C 150.789062 162.503906 150.582031 161.894531 150.832031 161.390625 L 152.140625 158.742188 C 152.386719 158.238281 153 158.03125 153.503906 158.28125 C 154.007812 158.53125 154.214844 159.140625 153.964844 159.644531 L 152.65625 162.292969 C 152.480469 162.652344 152.117188 162.859375 151.742188 162.859375 Z M 151.742188 162.859375 " fill-opacity="1" fill-rule="nonzero"/><path fill="#6f2407" d="M 163.558594 162.859375 C 163.183594 162.859375 162.820312 162.652344 162.644531 162.292969 L 161.335938 159.644531 C 161.085938 159.140625 161.292969 158.53125 161.796875 158.28125 C 162.300781 158.03125 162.914062 158.238281 163.160156 158.742188 L 164.46875 161.390625 C 164.71875 161.894531 164.511719 162.503906 164.007812 162.753906 C 163.863281 162.824219 163.710938 162.859375 163.558594 162.859375 Z M 163.558594 162.859375 " fill-opacity="1" fill-rule="nonzero"/><path fill="#6f2407" d="M 193.019531 148.398438 C 191.167969 148.398438 189.289062 147.636719 187.402344 146.121094 C 185.222656 147.875 183.042969 148.625 180.914062 148.34375 C 177.503906 147.894531 175.675781 144.917969 175.597656 144.792969 C 175.132812 144.023438 175.382812 143.023438 176.152344 142.558594 C 176.917969 142.097656 177.914062 142.339844 178.378906 143.105469 C 178.410156 143.152344 179.53125 144.890625 181.363281 145.121094 C 182.824219 145.300781 184.476562 144.515625 186.277344 142.78125 C 186.90625 142.175781 187.902344 142.175781 188.53125 142.78125 C 190.332031 144.515625 191.984375 145.300781 193.445312 145.121094 C 195.296875 144.890625 196.417969 143.121094 196.429688 143.101562 C 196.902344 142.34375 197.902344 142.105469 198.664062 142.570312 C 199.425781 143.039062 199.671875 144.027344 199.210938 144.792969 C 199.132812 144.917969 197.304688 147.894531 193.894531 148.34375 C 193.605469 148.378906 193.3125 148.398438 193.019531 148.398438 Z M 193.019531 148.398438 " fill-opacity="1" fill-rule="nonzero"/><path stroke-linecap="butt" transform="matrix(0.287292, 0, 0, 0.287292, 62.671054, 212.190336)" fill="none" stroke-linejoin="miter" d="M 79.149887 143.844373 C 78.606014 143.844373 78.143723 143.667614 77.776609 143.3005 C 77.423092 142.906193 77.232736 142.443901 77.232736 141.927222 L 77.232736 98.730158 L 77.083172 97.751188 L 49.38647 34.24049 C 49.277696 34.022941 49.223309 33.710215 49.223309 33.30231 C 49.223309 32.432115 49.767181 32.010614 50.827732 32.010614 L 66.491257 32.010614 C 67.660582 32.010614 68.422004 32.486502 68.761924 33.451875 L 86.029872 76.662536 C 86.342599 77.383167 86.655325 77.383167 86.995246 76.662536 L 104.113629 33.451875 C 104.426356 32.486502 105.160583 32.010614 106.329909 32.010614 L 122.197386 32.010614 C 122.918017 32.010614 123.393905 32.228162 123.597857 32.676857 C 123.8426 33.084761 123.8426 33.615037 123.638648 34.24049 L 95.792382 97.751188 L 95.62922 98.730158 L 95.62922 141.927222 C 95.62922 142.443901 95.438864 142.906193 95.044557 143.3005 C 94.677443 143.667614 94.242345 143.844373 93.71207 143.844373 Z M 172.111274 145.448796 C 165.068127 145.448796 158.867981 144.007534 153.470048 141.152204 C 148.085711 138.256084 143.911491 134.163444 140.97458 128.887882 C 138.051266 123.598723 136.596407 117.493756 136.596407 110.559383 L 136.596407 65.445168 C 136.596407 58.61957 138.051266 52.56899 140.97458 47.279831 C 143.911491 41.990672 148.085711 37.925226 153.470048 35.056299 C 158.867981 32.160178 165.068127 30.718917 172.111274 30.718917 C 179.236002 30.718917 185.504131 32.160178 190.888468 35.056299 C 196.286401 37.925226 200.474219 41.990672 203.465517 47.279831 C 206.470412 52.56899 207.966061 58.61957 207.966061 65.445168 L 207.966061 110.559383 C 207.966061 117.493756 206.470412 123.598723 203.465517 128.887882 C 200.474219 134.163444 196.286401 138.256084 190.888468 141.152204 C 185.504131 144.007534 179.236002 145.448796 172.111274 145.448796 Z M 172.111274 129.431754 C 177.346046 129.431754 181.520266 127.74575 184.647532 124.387338 C 187.788395 121.028926 189.365625 116.677947 189.365625 111.347998 L 189.365625 64.982877 C 189.365625 59.530556 187.788395 55.138787 184.647532 51.766778 C 181.520266 48.408366 177.346046 46.735958 172.111274 46.735958 C 166.97168 46.735958 162.865443 48.408366 159.765371 51.766778 C 156.692492 55.138787 155.156052 59.530556 155.156052 64.982877 L 155.156052 111.347998 C 155.156052 116.677947 156.692492 121.028926 159.765371 124.387338 C 162.865443 127.74575 166.97168 129.431754 172.111274 129.431754 Z M 224.268636 158.569717 C 222.990536 158.569717 222.405873 157.862683 222.50105 156.462212 L 227.314321 120.634619 C 227.409499 119.465293 228.102936 118.88063 229.381036 118.88063 L 242.189231 118.88063 C 243.671283 118.88063 244.255946 119.574067 243.943219 120.947345 L 235.322842 156.965294 C 234.982922 158.039442 234.2215 158.569717 233.052175 158.569717 Z M 364.900438 113.292341 C 364.900438 123.190819 361.786768 130.777839 355.532236 136.066998 C 349.304897 141.356156 341.187602 143.993938 331.153156 143.993938 L 297.052358 143.993938 C 296.535679 143.993938 296.073387 143.817179 295.692677 143.450065 C 295.325563 143.055758 295.135207 142.607063 295.135207 142.090384 L 295.135207 33.927764 C 295.135207 33.370294 295.325563 32.9216 295.692677 32.554486 C 296.073387 32.187372 296.535679 32.010614 297.052358 32.010614 L 329.236006 32.010614 C 339.991082 32.010614 348.380314 34.553217 354.403701 39.624827 C 360.440684 44.68284 363.459176 52.215473 363.459176 62.236321 C 363.459176 73.23614 359.13539 81.013515 350.487819 85.59564 C 349.971141 85.908367 349.916753 86.23469 350.338254 86.574611 C 360.046377 91.782189 364.900438 100.688099 364.900438 113.292341 Z M 314.510661 47.986865 C 313.966789 47.986865 313.694853 48.258801 313.694853 48.802673 L 313.694853 78.56609 C 313.694853 79.096365 313.966789 79.354705 314.510661 79.354705 L 329.399168 79.354705 C 334.402794 79.354705 338.305078 77.995024 341.119618 75.289259 C 343.961351 72.5563 345.375419 68.735596 345.375419 63.840745 C 345.375419 58.823522 343.961351 54.921238 341.119618 52.161085 C 338.305078 49.373739 334.402794 47.986865 329.399168 47.986865 Z M 330.486912 127.827331 C 335.408957 127.827331 339.284048 126.345279 342.098588 123.381174 C 344.926724 120.376279 346.354389 116.215656 346.354389 110.872109 C 346.354389 105.54216 344.899531 101.354343 342.017007 98.335851 C 339.14808 95.290166 335.259393 93.767323 330.337347 93.767323 L 314.510661 93.767323 C 313.966789 93.767323 313.694853 94.025662 313.694853 94.542341 L 313.694853 127.052313 C 313.694853 127.568992 313.966789 127.827331 314.510661 127.827331 Z M 439.315777 143.993938 C 438.146451 143.993938 437.398626 143.463662 437.058706 142.403111 L 432.911679 125.284728 C 432.816502 124.84963 432.530969 124.618484 432.095871 124.618484 L 399.164398 124.618484 C 398.715703 124.618484 398.443767 124.84963 398.348589 125.284728 L 394.364724 142.403111 C 394.024804 143.463662 393.263382 143.993938 392.094057 143.993938 L 376.892824 143.993938 C 375.519546 143.993938 374.98927 143.314097 375.301997 141.927222 L 404.43996 33.615037 C 404.752687 32.540889 405.486914 32.010614 406.669837 32.010614 L 424.903158 32.010614 C 426.072484 32.010614 426.820309 32.540889 427.133035 33.615037 L 456.270998 141.927222 L 456.43416 142.552676 C 456.43416 143.518049 455.849497 143.993938 454.666575 143.993938 Z M 402.169293 109.118121 C 402.074115 109.430848 402.114905 109.67559 402.332454 109.865945 C 402.5636 110.01551 402.781149 110.097091 402.998698 110.097091 L 428.26157 110.097091 C 428.479119 110.097091 428.683071 110.01551 428.887024 109.865945 C 429.131766 109.67559 429.172557 109.430848 429.050185 109.118121 L 415.956458 56.661629 C 415.834086 56.321709 415.657328 56.144951 415.453376 56.144951 C 415.249424 56.144951 415.086262 56.321709 414.991084 56.661629 Z M 525.369985 33.927764 C 525.369985 33.370294 525.56034 32.9216 525.927454 32.554486 C 526.308165 32.187372 526.770456 32.010614 527.287135 32.010614 L 542.01248 32.010614 C 542.556352 32.010614 543.018644 32.187372 543.385757 32.554486 C 543.752871 32.9216 543.92963 33.370294 543.92963 33.927764 L 543.92963 142.090384 C 543.92963 142.607063 543.752871 143.055758 543.385757 143.450065 C 543.018644 143.817179 542.556352 143.993938 542.01248 143.993938 L 526.512117 143.993938 C 525.546743 143.993938 524.798919 143.518049 524.28224 142.552676 L 489.392826 70.870295 C 489.161681 70.557569 488.944132 70.435198 488.74018 70.489585 C 488.522631 70.530375 488.427453 70.775118 488.427453 71.183022 L 488.577018 142.090384 C 488.577018 142.607063 488.400259 143.055758 488.033145 143.450065 C 487.666032 143.817179 487.217337 143.993938 486.659868 143.993938 L 471.934523 143.993938 C 471.417844 143.993938 470.955553 143.817179 470.574842 143.450065 C 470.207728 143.055758 470.017373 142.607063 470.017373 142.090384 L 470.017373 33.927764 C 470.017373 33.370294 470.207728 32.9216 470.574842 32.554486 C 470.955553 32.187372 471.417844 32.010614 471.934523 32.010614 L 487.285321 32.010614 C 488.359469 32.010614 489.107293 32.486502 489.555988 33.451875 L 524.594967 105.446982 C 524.798919 105.759709 525.016468 105.88208 525.22042 105.84129 C 525.424372 105.786903 525.533146 105.555757 525.533146 105.134256 Z M 621.716978 143.993938 C 620.547652 143.993938 619.799827 143.463662 619.459907 142.403111 L 615.31288 125.284728 C 615.204106 124.84963 614.93217 124.618484 614.497072 124.618484 L 581.565599 124.618484 C 581.116904 124.618484 580.844968 124.84963 580.74979 125.284728 L 576.765925 142.403111 C 576.426005 143.463662 575.664583 143.993938 574.495258 143.993938 L 559.294025 143.993938 C 557.920747 143.993938 557.390471 143.314097 557.703198 141.927222 L 586.841161 33.615037 C 587.153888 32.540889 587.888115 32.010614 589.071038 32.010614 L 607.304359 32.010614 C 608.473685 32.010614 609.22151 32.540889 609.534236 33.615037 L 638.672199 141.927222 L 638.835361 142.552676 C 638.835361 143.518049 638.250698 143.993938 637.067776 143.993938 Z M 584.570494 109.118121 C 584.475316 109.430848 584.516107 109.67559 584.733655 109.865945 C 584.964801 110.01551 585.18235 110.097091 585.386302 110.097091 L 610.662771 110.097091 C 610.88032 110.097091 611.084273 110.01551 611.288225 109.865945 C 611.51937 109.67559 611.573758 109.430848 611.451386 109.118121 L 598.357659 56.661629 C 598.235287 56.321709 598.058529 56.144951 597.854577 56.144951 C 597.650625 56.144951 597.487463 56.321709 597.378688 56.661629 Z M 707.771186 33.927764 C 707.771186 33.370294 707.961541 32.9216 708.328655 32.554486 C 708.709366 32.187372 709.171657 32.010614 709.688336 32.010614 L 724.413681 32.010614 C 724.957553 32.010614 725.419845 32.187372 725.786958 32.554486 C 726.154072 32.9216 726.330831 33.370294 726.330831 33.927764 L 726.330831 142.090384 C 726.330831 142.607063 726.154072 143.055758 725.786958 143.450065 C 725.419845 143.817179 724.957553 143.993938 724.413681 143.993938 L 708.913318 143.993938 C 707.947944 143.993938 707.20012 143.518049 706.683441 142.552676 L 671.794027 70.870295 C 671.562882 70.557569 671.345333 70.435198 671.141381 70.489585 C 670.923832 70.530375 670.828654 70.775118 670.828654 71.183022 L 670.978219 142.090384 C 670.978219 142.607063 670.80146 143.055758 670.434347 143.450065 C 670.067233 143.817179 669.604941 143.993938 669.061069 143.993938 L 654.335724 143.993938 C 653.819045 143.993938 653.356754 143.817179 652.976043 143.450065 C 652.608929 143.055758 652.418574 142.607063 652.418574 142.090384 L 652.418574 33.927764 C 652.418574 33.370294 652.608929 32.9216 652.976043 32.554486 C 653.356754 32.187372 653.819045 32.010614 654.335724 32.010614 L 669.686522 32.010614 C 670.76067 32.010614 671.508494 32.486502 671.957189 33.451875 L 706.996168 105.446982 C 707.20012 105.759709 707.417669 105.88208 707.621621 105.84129 C 707.825573 105.786903 707.934347 105.555757 707.934347 105.134256 Z M 804.118179 143.993938 C 802.948853 143.993938 802.201029 143.463662 801.861108 142.403111 L 797.714081 125.284728 C 797.605307 124.84963 797.333371 124.618484 796.898273 124.618484 L 763.9668 124.618484 C 763.518105 124.618484 763.246169 124.84963 763.150991 125.284728 L 759.167126 142.403111 C 758.827206 143.463662 758.065785 143.993938 756.896459 143.993938 L 741.695226 143.993938 C 740.321948 143.993938 739.791672 143.314097 740.104399 141.927222 L 769.242362 33.615037 C 769.555089 32.540889 770.289316 32.010614 771.458642 32.010614 L 789.70556 32.010614 C 790.874886 32.010614 791.622711 32.540889 791.935437 33.615037 L 821.0734 141.927222 L 821.236562 142.552676 C 821.236562 143.518049 820.638302 143.993938 819.468977 143.993938 Z M 766.971695 109.118121 C 766.86292 109.430848 766.917308 109.67559 767.134857 109.865945 C 767.366002 110.01551 767.583551 110.097091 767.787503 110.097091 L 793.063972 110.097091 C 793.281521 110.097091 793.485474 110.01551 793.689426 109.865945 C 793.920571 109.67559 793.974959 109.430848 793.852587 109.118121 L 780.75886 56.661629 C 780.636488 56.321709 780.45973 56.144951 780.255778 56.144951 C 780.051826 56.144951 779.888664 56.321709 779.779889 56.661629 Z M 766.971695 109.118121 " stroke="#ff9e5e" stroke-width="3.8" stroke-opacity="1" stroke-miterlimit="4"/><path stroke-linecap="butt" transform="matrix(0.287292, 0, 0, 0.287292, 62.671054, 212.190336)" fill="none" stroke-linejoin="miter" d="M 361.215702 273.299597 C 361.215702 283.198074 358.088436 290.785094 351.8475 296.074253 C 345.620161 301.363412 337.489269 304.001193 327.468421 304.001193 L 293.367622 304.001193 C 292.850943 304.001193 292.388652 303.824435 291.994344 303.457321 C 291.640827 303.063013 291.450472 302.600722 291.450472 302.084043 L 291.450472 193.921422 C 291.450472 193.37755 291.640827 192.915259 291.994344 192.548145 C 292.388652 192.194628 292.850943 192.004272 293.367622 192.004272 L 325.55127 192.004272 C 336.306347 192.004272 344.695578 194.546876 350.705368 199.618486 C 356.755949 204.676499 359.77444 212.222728 359.77444 222.243577 C 359.77444 233.229799 355.450655 241.020771 346.803084 245.602896 C 346.286405 245.915622 346.232018 246.241946 346.653519 246.581866 C 356.361641 251.789444 361.215702 260.695355 361.215702 273.299597 Z M 310.825926 207.980524 C 310.282053 207.980524 310.010117 208.25246 310.010117 208.809929 L 310.010117 238.573345 C 310.010117 239.090024 310.282053 239.348363 310.825926 239.348363 L 325.714432 239.348363 C 330.704461 239.348363 334.620343 238.002279 337.434882 235.282917 C 340.263019 232.549959 341.690684 228.742852 341.690684 223.848 C 341.690684 218.817181 340.263019 214.928493 337.434882 212.168341 C 334.620343 209.380995 330.704461 207.980524 325.714432 207.980524 Z M 326.802177 287.834587 C 331.724222 287.834587 335.599313 286.338937 338.400256 283.374833 C 341.241989 280.383535 342.669654 276.209314 342.669654 270.879365 C 342.669654 265.535819 341.214795 261.361598 338.332272 258.32951 C 335.463345 255.283824 331.574657 253.760982 326.652612 253.760982 L 310.825926 253.760982 C 310.282053 253.760982 310.010117 254.019321 310.010117 254.549597 L 310.010117 287.045972 C 310.010117 287.56265 310.282053 287.834587 310.825926 287.834587 Z M 411.292752 305.442455 C 404.263201 305.442455 398.049459 304.01479 392.665123 301.145863 C 387.280786 298.26334 383.106566 294.1707 380.169655 288.881541 C 377.246341 283.592382 375.791482 277.487414 375.791482 270.566638 L 375.791482 225.438827 C 375.791482 218.626826 377.246341 212.562648 380.169655 207.287086 C 383.106566 201.997927 387.280786 197.918885 392.665123 195.049958 C 398.049459 192.167434 404.263201 190.712575 411.292752 190.712575 C 418.431077 190.712575 424.699206 192.167434 430.083543 195.049958 C 435.481476 197.918885 439.669294 201.997927 442.660592 207.287086 C 445.665487 212.562648 447.161136 218.626826 447.161136 225.438827 L 447.161136 270.566638 C 447.161136 277.487414 445.665487 283.592382 442.660592 288.881541 C 439.669294 294.1707 435.481476 298.26334 430.083543 301.145863 C 424.699206 304.01479 418.431077 305.442455 411.292752 305.442455 Z M 411.292752 289.425413 C 416.527524 289.425413 420.715341 287.753006 423.842607 284.394594 C 426.98347 281.036182 428.5607 276.685203 428.5607 271.341656 L 428.5607 224.976536 C 428.5607 219.537812 426.98347 215.132445 423.842607 211.774034 C 420.715341 208.415622 416.527524 206.729617 411.292752 206.729617 C 406.166755 206.729617 402.046921 208.415622 398.960446 211.774034 C 395.887567 215.132445 394.351127 219.537812 394.351127 224.976536 L 394.351127 271.341656 C 394.351127 276.685203 395.887567 281.036182 398.960446 284.394594 C 402.046921 287.753006 406.166755 289.425413 411.292752 289.425413 Z M 489.855118 303.838031 C 489.311246 303.838031 488.862551 303.661273 488.495437 303.294159 C 488.128323 302.899852 487.951565 302.451157 487.951565 301.934478 L 487.951565 258.723817 L 487.788403 257.744847 L 460.091702 194.234149 C 459.996524 194.030197 459.942137 193.71747 459.942137 193.295969 C 459.942137 192.43937 460.472412 192.004272 461.54656 192.004272 L 477.210085 192.004272 C 478.379411 192.004272 479.127235 192.493757 479.467155 193.459131 L 496.735104 236.656195 C 497.04783 237.390423 497.374154 237.390423 497.714074 236.656195 L 514.81886 193.459131 C 515.131587 192.493757 515.879412 192.004272 517.048737 192.004272 L 532.902617 192.004272 C 533.636845 192.004272 534.112733 192.235418 534.316685 192.670516 C 534.547831 193.092017 534.561428 193.608696 534.357476 194.234149 L 506.497613 257.744847 L 506.348048 258.723817 L 506.348048 301.934478 C 506.348048 302.451157 506.144096 302.899852 505.763385 303.294159 C 505.396271 303.661273 504.947577 303.838031 504.430898 303.838031 Z M 558.165489 266.229256 C 557.648811 266.229256 557.186519 266.038901 556.805809 265.685384 C 556.438695 265.31827 556.261936 264.855978 556.261936 264.312106 L 554.494351 193.921422 C 554.494351 193.37755 554.684706 192.915259 555.038223 192.548145 C 555.432531 192.194628 555.894822 192.004272 556.411501 192.004272 L 571.136846 192.004272 C 571.653525 192.004272 572.102219 192.194628 572.469333 192.548145 C 572.863641 192.915259 573.053996 193.37755 573.053996 193.921422 L 571.136846 264.312106 C 571.136846 264.855978 570.946491 265.31827 570.552183 265.685384 C 570.185069 266.038901 569.749971 266.229256 569.219696 266.229256 Z M 563.291487 303.688467 C 559.973865 303.688467 557.254503 302.614319 555.119804 300.479619 C 552.985105 298.34492 551.924554 295.625558 551.924554 292.321534 C 551.924554 289.017509 552.985105 286.311744 555.119804 284.231432 C 557.254503 282.15112 559.973865 281.104166 563.291487 281.104166 C 566.595511 281.104166 569.314873 282.15112 571.449572 284.231432 C 573.584272 286.311744 574.65842 289.017509 574.65842 292.321534 C 574.65842 295.625558 573.584272 298.34492 571.449572 300.479619 C 569.314873 302.614319 566.595511 303.688467 563.291487 303.688467 Z M 563.291487 303.688467 " stroke="#ff9e5e" stroke-width="3.8" stroke-opacity="1" stroke-miterlimit="4"/></svg>